/* XPM */
static char * robotfindskitten_xpm[] = {
"32 32 101 2",
"  	c None",
". 	c #C70606",
"+ 	c #C60404",
"@ 	c #C50000",
"# 	c #C60303",
"$ 	c #C80F0F",
"% 	c #C70707",
"& 	c #CA1919",
"* 	c #C91616",
"= 	c #C80D0D",
"- 	c #C40000",
"; 	c #C60202",
"> 	c #C81111",
", 	c #CD2121",
"' 	c #C60505",
") 	c #C91414",
"! 	c #C30000",
"~ 	c #DD8686",
"{ 	c #D24848",
"] 	c #DF9393",
"^ 	c #D03C3C",
"/ 	c #C10000",
"( 	c #F1F5F5",
"_ 	c #D03E3E",
": 	c #F3FFFF",
"< 	c #D03939",
"[ 	c #C91313",
"} 	c #CA1C1C",
"| 	c #F2FCFC",
"1 	c #CB2323",
"2 	c #CE2F2F",
"3 	c #F1F7F7",
"4 	c #C91212",
"5 	c #C50101",
"6 	c #CE3636",
"7 	c #D24747",
"8 	c #DF9090",
"9 	c #EFE9E9",
"0 	c #D45656",
"a 	c #D24646",
"b 	c #E19C9C",
"c 	c #EDE3E3",
"d 	c #D45555",
"e 	c #CD2D2D",
"f 	c #DF9292",
"g 	c #E9CACA",
"h 	c #EFE8E8",
"i 	c #EEE6E6",
"j 	c #E9C9C9",
"k 	c #EEE8E8",
"l 	c #EEE5E5",
"m 	c #EACCCC",
"n 	c #DA7A7A",
"o 	c #E8C5C5",
"p 	c #E19B9B",
"q 	c #C00000",
"r 	c #E9CCCC",
"s 	c #DE9090",
"t 	c #CC2222",
"u 	c #C91717",
"v 	c #F0ECEC",
"w 	c #D34D4D",
"x 	c #CA1B1B",
"y 	c #F1F2F2",
"z 	c #CF3C3C",
"A 	c #C60606",
"B 	c #C60707",
"C 	c #D14444",
"D 	c #D76767",
"E 	c #F2FDFD",
"F 	c #D34949",
"G 	c #D86B6B",
"H 	c #D14343",
"I 	c #D45151",
"J 	c #C81212",
"K 	c #E6B9B9",
"L 	c #EBD7D7",
"M 	c #E8C8C8",
"N 	c #ECDBDB",
"O 	c #EDDFDF",
"P 	c #D13333",
"Q 	c #DE8989",
"R 	c #DB7C7C",
"S 	c #BF0000",
"T 	c #D86969",
"U 	c #EFEAEA",
"V 	c #D14545",
"W 	c #F2F9F9",
"X 	c #C70D0D",
"Y 	c #C50202",
"Z 	c #CC2727",
"` 	c #C91515",
" .	c #EDE2E2",
"..	c #CB2121",
"+.	c #C70808",
"@.	c #C60808",
"#.	c #C81313",
"$.	c #CD2727",
"%.	c #CD2626",
"&.	c #CB1B1B",
"*.	c #CB1C1C",
"                                                                ",
"                                                                ",
"                                                                ",
"            . + @ @ @ # $             $ # @ @ @ + %             ",
"          + @ @ @ @ @ @ @ &         & @ @ @ @ @ @ @ +           ",
"        * @ @ @ @ @ @ @ @ @ =     = @ @ @ @ @ @ @ @ @ *         ",
"        - @ @ @ @ @ @ @ @ @ ;     ; @ @ @ @ @ @ @ @ @ -         ",
"      > @ @ @ @ @ @ @ @ @ @ @ , , @ @ @ @ @ @ @ @ @ @ @ >       ",
"      ' @ @ @ @ @ @ @ @ @ @ @ @ @ @ @ @ @ @ @ @ @ @ @ @ '       ",
"      ) @ @ @ @ @ @ @ @ @ ! ~ { @ ! ] ^ @ @ @ @ @ @ @ @ )       ",
"        @ @ @ @ @ @ @ @ @ / ( _ @ / : < @ @ @ @ @ @ @ -         ",
"        [ @ @ @ @ @ @ @ - } | 1 - 2 3 } @ @ @ @ @ @ @ 4         ",
"          5 @ @ @ @ @ 6 7 8 9 0 a b c d e @ @ @ @ @ @           ",
"          % @ @ @ @ @ f g h i j j k l m n - @ @ @ @ %           ",
"            @ @ @ @ @ ! ! o p q ! r s q ! @ @ @ @ @             ",
"            t @ @ @ @ @ u v w - x y z - @ @ @ @ @ t             ",
"              A @ @ B C D E w F G : H I - @ @ @ A               ",
"                ! @ J K L 9 o M N l o O - @ @ !                 ",
"                P @ @ q Q R q S b T q / @ @ @ P                 ",
"                  = @ / U V @ q W _ @ @ @ @ X                   ",
"                    B Y U Z - `  ...@ @ @ +.                    ",
"                      @.#.Y @ ' J Y @ @ +                       ",
"                        5 @ @ @ @ @ @ 5                         ",
"                        $.@ @ @ @ @ @ %.                        ",
"                          B @ @ @ @ B                           ",
"                            - @ @ -                             ",
"                            &.@ @ *.                            ",
"                              # #                               ",
"                              A A                               ",
"                              A A                               ",
"                                                                ",
"                                                                "};
